<mxfile host="Electron" modified="2023-08-08T14:18:38.604Z" agent="Mozilla/5.0 (Windows NT 10.0; Win64; x64) AppleWebKit/537.36 (KHTML, like Gecko) draw.io/21.6.5 Chrome/114.0.5735.243 Electron/25.3.1 Safari/537.36" etag="AGAc6d29Z393jCyZGLpz" version="21.6.5" type="device">
  <diagram name="Page-1" id="L7fOHCl94azf6qqIQ6vf">
    <mxGraphModel dx="880" dy="545" grid="1" gridSize="10" guides="1" tooltips="1" connect="1" arrows="1" fold="1" page="1" pageScale="1" pageWidth="1169" pageHeight="827" math="0" shadow="0">
      <root>
        <mxCell id="0" />
        <mxCell id="1" parent="0" />
        <mxCell id="Xp2gS2zgmj0rSCL131tW-1" value="Target" style="shape=folder;fontStyle=1;spacingTop=10;tabWidth=40;tabHeight=14;tabPosition=left;html=1;whiteSpace=wrap;" vertex="1" parent="1">
          <mxGeometry width="80" height="50" as="geometry" />
        </mxCell>
        <mxCell id="Xp2gS2zgmj0rSCL131tW-3" style="rounded=0;orthogonalLoop=1;jettySize=auto;html=1;entryX=0;entryY=0;entryDx=80;entryDy=32;entryPerimeter=0;dashed=1;exitX=0;exitY=0;exitDx=0;exitDy=32;exitPerimeter=0;" edge="1" parent="1" source="Xp2gS2zgmj0rSCL131tW-2" target="Xp2gS2zgmj0rSCL131tW-1">
          <mxGeometry relative="1" as="geometry" />
        </mxCell>
        <mxCell id="Xp2gS2zgmj0rSCL131tW-4" value="«merge»" style="edgeLabel;html=1;align=center;verticalAlign=middle;resizable=0;points=[];" vertex="1" connectable="0" parent="Xp2gS2zgmj0rSCL131tW-3">
          <mxGeometry x="0.025" y="2" relative="1" as="geometry">
            <mxPoint x="10" y="-20" as="offset" />
          </mxGeometry>
        </mxCell>
        <mxCell id="Xp2gS2zgmj0rSCL131tW-2" value="Source" style="shape=folder;fontStyle=1;spacingTop=10;tabWidth=40;tabHeight=14;tabPosition=left;html=1;whiteSpace=wrap;" vertex="1" parent="1">
          <mxGeometry x="200" y="40" width="80" height="50" as="geometry" />
        </mxCell>
        <mxCell id="Xp2gS2zgmj0rSCL131tW-5" value="&lt;b&gt;Figure 12.4 Notation for Package Merge&lt;/b&gt;" style="text;html=1;align=center;verticalAlign=middle;resizable=0;points=[];autosize=1;strokeColor=none;fillColor=none;" vertex="1" parent="1">
          <mxGeometry y="90" width="250" height="30" as="geometry" />
        </mxCell>
      </root>
    </mxGraphModel>
  </diagram>
</mxfile>
